<svg width="114" height="114" viewBox="0 0 114 114" fill="none" xmlns="http://www.w3.org/2000/svg">
<path d="M98.9914 30.9105H58.8302C54.0802 30.673 44.7464 20.8643 39.3789 20.8643H15.8664C15.1865 20.8641 14.5132 20.9978 13.885 21.2578C13.2567 21.5178 12.6859 21.8991 12.205 22.3797C11.7241 22.8603 11.3425 23.431 11.0822 24.0591C10.8218 24.6872 10.6877 25.3604 10.6875 26.0403C10.6875 26.0805 10.6875 26.1204 10.6889 26.1605V43.4743H103.314V35.3518C103.327 34.7811 103.227 34.2135 103.02 33.6814C102.813 33.1493 102.504 32.6632 102.109 32.2508C101.714 31.8384 101.242 31.5077 100.72 31.2778C100.197 31.0478 99.6346 30.923 99.0639 30.9105H98.9914Z" stroke="#0DCAF0" stroke-width="5" stroke-linecap="round" stroke-linejoin="round"/>
<path d="M103.313 43.4502H10.6877V87.9102C10.6815 88.5901 10.8092 89.2646 11.0636 89.8952C11.318 90.5258 11.6942 91.1 12.1705 91.5852C12.6469 92.0704 13.2142 92.457 13.84 92.723C14.4657 92.9889 15.1378 93.129 15.8177 93.1352H15.8415H98.1352C99.5084 93.1352 100.825 92.5897 101.796 91.6187C102.767 90.6478 103.313 89.3309 103.313 87.9577V87.9102V43.4502Z" stroke="#0DCAF0" stroke-width="5" stroke-linecap="round" stroke-linejoin="round"/>
</svg>
